# Piece d'essai pour la visionneuse 3D - cotes en millimetres
mtllib equerre.mtl
o Socle
usemtl acier
v 0 0 0
v 40 0 0
v 40 40 0
v 0 40 0
v 0 0 15
v 40 0 15
v 40 40 15
v 0 40 15
f 1 3 2
f 1 4 3
f 5 6 7
f 5 7 8
f 1 2 6
f 1 6 5
f 2 3 7
f 2 7 6
f 3 4 8
f 3 8 7
f 4 1 5
f 4 5 8
o Colonne
usemtl laiton
v 12 12 15
v 28 12 15
v 28 28 15
v 12 28 15
v 12 12 50
v 28 12 50
v 28 28 50
v 12 28 50
f 9 11 10
f 9 12 11
f 13 14 15
f 13 15 16
f 9 10 14
f 9 14 13
f 10 11 15
f 10 15 14
f 11 12 16
f 11 16 15
f 12 9 13
f 12 13 16
