# Pieces d'essai de la mesure - cotes en millimetres
# Plaque : 60 x 40 x 8, droite, trou traversant D12 centre en (30 ; 20).
# Equerre : profil en L 40 x 30, epaisseur 6, longueur 30, tournee de
# 30 deg autour de Z apres 12 deg autour de Y (rotation figee dans les sommets).
o Plaque
v 36 20 0
v 35.948669 20.783157 0
v 35.795555 21.552914 0
v 35.543277 22.296101 0
v 35.196152 23 0
v 34.992302 23.328201 0
v 34.76012 23.652569 0
v 34.242641 24.242641 0
v 33.652569 24.76012 0
v 33 25.196152 0
v 32.296101 25.543277 0
v 31.552914 25.795555 0
v 30.783157 25.948669 0
v 30 26 0
v 29.216843 25.948669 0
v 28.447086 25.795555 0
v 27.703899 25.543277 0
v 27 25.196152 0
v 26.347431 24.76012 0
v 25.757359 24.242641 0
v 25.23988 23.652569 0
v 25.007698 23.328201 0
v 24.803848 23 0
v 24.456723 22.296101 0
v 24.204445 21.552914 0
v 24.051331 20.783157 0
v 24 20 0
v 24.051331 19.216843 0
v 24.204445 18.447086 0
v 24.456723 17.703899 0
v 24.803848 17 0
v 25.007698 16.671799 0
v 25.23988 16.347431 0
v 25.757359 15.757359 0
v 26.347431 15.23988 0
v 27 14.803848 0
v 27.703899 14.456723 0
v 28.447086 14.204445 0
v 29.216843 14.051331 0
v 30 14 0
v 30.783157 14.051331 0
v 31.552914 14.204445 0
v 32.296101 14.456723 0
v 33 14.803848 0
v 33.652569 15.23988 0
v 34.242641 15.757359 0
v 34.76012 16.347431 0
v 34.992302 16.671799 0
v 35.196152 17 0
v 35.543277 17.703899 0
v 35.795555 18.447086 0
v 35.948669 19.216843 0
v 36 20 8
v 35.948669 20.783157 8
v 35.795555 21.552914 8
v 35.543277 22.296101 8
v 35.196152 23 8
v 34.992302 23.328201 8
v 34.76012 23.652569 8
v 34.242641 24.242641 8
v 33.652569 24.76012 8
v 33 25.196152 8
v 32.296101 25.543277 8
v 31.552914 25.795555 8
v 30.783157 25.948669 8
v 30 26 8
v 29.216843 25.948669 8
v 28.447086 25.795555 8
v 27.703899 25.543277 8
v 27 25.196152 8
v 26.347431 24.76012 8
v 25.757359 24.242641 8
v 25.23988 23.652569 8
v 25.007698 23.328201 8
v 24.803848 23 8
v 24.456723 22.296101 8
v 24.204445 21.552914 8
v 24.051331 20.783157 8
v 24 20 8
v 24.051331 19.216843 8
v 24.204445 18.447086 8
v 24.456723 17.703899 8
v 24.803848 17 8
v 25.007698 16.671799 8
v 25.23988 16.347431 8
v 25.757359 15.757359 8
v 26.347431 15.23988 8
v 27 14.803848 8
v 27.703899 14.456723 8
v 28.447086 14.204445 8
v 29.216843 14.051331 8
v 30 14 8
v 30.783157 14.051331 8
v 31.552914 14.204445 8
v 32.296101 14.456723 8
v 33 14.803848 8
v 33.652569 15.23988 8
v 34.242641 15.757359 8
v 34.76012 16.347431 8
v 34.992302 16.671799 8
v 35.196152 17 8
v 35.543277 17.703899 8
v 35.795555 18.447086 8
v 35.948669 19.216843 8
v 60 20 0
v 60 23.949575 0
v 60 28.038476 0
v 60 32.426407 0
v 60 37.320508 0
v 60 40 0
v 56.064507 40 0
v 50 40 0
v 45.34654 40 0
v 41.547005 40 0
v 38.284271 40 0
v 35.358984 40 0
v 32.63305 40 0
v 30 40 0
v 27.36695 40 0
v 24.641016 40 0
v 21.715729 40 0
v 18.452995 40 0
v 14.65346 40 0
v 10 40 0
v 3.935493 40 0
v 0 40 0
v 0 37.320508 0
v -0 32.426407 0
v 0 28.038476 0
v 0 23.949575 0
v 0 20 0
v 0 16.050425 0
v 0 11.961524 0
v 0 7.573593 0
v -0 2.679492 0
v 0 0 0
v 3.935493 0 0
v 10 0 0
v 14.65346 0 0
v 18.452995 0 0
v 21.715729 0 0
v 24.641016 0 0
v 27.36695 0 0
v 30 0 0
v 32.63305 0 0
v 35.358984 0 0
v 38.284271 0 0
v 41.547005 0 0
v 45.34654 0 0
v 50 0 0
v 56.064507 0 0
v 60 0 0
v 60 2.679492 0
v 60 7.573593 0
v 60 11.961524 0
v 60 16.050425 0
v 60 20 8
v 60 23.949575 8
v 60 28.038476 8
v 60 32.426407 8
v 60 37.320508 8
v 60 40 8
v 56.064507 40 8
v 50 40 8
v 45.34654 40 8
v 41.547005 40 8
v 38.284271 40 8
v 35.358984 40 8
v 32.63305 40 8
v 30 40 8
v 27.36695 40 8
v 24.641016 40 8
v 21.715729 40 8
v 18.452995 40 8
v 14.65346 40 8
v 10 40 8
v 3.935493 40 8
v 0 40 8
v 0 37.320508 8
v -0 32.426407 8
v 0 28.038476 8
v 0 23.949575 8
v 0 20 8
v 0 16.050425 8
v 0 11.961524 8
v 0 7.573593 8
v -0 2.679492 8
v 0 0 8
v 3.935493 0 8
v 10 0 8
v 14.65346 0 8
v 18.452995 0 8
v 21.715729 0 8
v 24.641016 0 8
v 27.36695 0 8
v 30 0 8
v 32.63305 0 8
v 35.358984 0 8
v 38.284271 0 8
v 41.547005 0 8
v 45.34654 0 8
v 50 0 8
v 56.064507 0 8
v 60 0 8
v 60 2.679492 8
v 60 7.573593 8
v 60 11.961524 8
v 60 16.050425 8
f 53 157 158
f 53 158 54
f 1 106 105
f 1 2 106
f 105 106 158
f 105 158 157
f 1 53 54
f 1 54 2
f 54 158 159
f 54 159 55
f 2 107 106
f 2 3 107
f 106 107 159
f 106 159 158
f 2 54 55
f 2 55 3
f 55 159 160
f 55 160 56
f 3 108 107
f 3 4 108
f 107 108 160
f 107 160 159
f 3 55 56
f 3 56 4
f 56 160 161
f 56 161 57
f 4 109 108
f 4 5 109
f 108 109 161
f 108 161 160
f 4 56 57
f 4 57 5
f 57 161 162
f 57 162 58
f 5 110 109
f 5 6 110
f 109 110 162
f 109 162 161
f 5 57 58
f 5 58 6
f 58 162 163
f 58 163 59
f 6 111 110
f 6 7 111
f 110 111 163
f 110 163 162
f 6 58 59
f 6 59 7
f 59 163 164
f 59 164 60
f 7 112 111
f 7 8 112
f 111 112 164
f 111 164 163
f 7 59 60
f 7 60 8
f 60 164 165
f 60 165 61
f 8 113 112
f 8 9 113
f 112 113 165
f 112 165 164
f 8 60 61
f 8 61 9
f 61 165 166
f 61 166 62
f 9 114 113
f 9 10 114
f 113 114 166
f 113 166 165
f 9 61 62
f 9 62 10
f 62 166 167
f 62 167 63
f 10 115 114
f 10 11 115
f 114 115 167
f 114 167 166
f 10 62 63
f 10 63 11
f 63 167 168
f 63 168 64
f 11 116 115
f 11 12 116
f 115 116 168
f 115 168 167
f 11 63 64
f 11 64 12
f 64 168 169
f 64 169 65
f 12 117 116
f 12 13 117
f 116 117 169
f 116 169 168
f 12 64 65
f 12 65 13
f 65 169 170
f 65 170 66
f 13 118 117
f 13 14 118
f 117 118 170
f 117 170 169
f 13 65 66
f 13 66 14
f 66 170 171
f 66 171 67
f 14 119 118
f 14 15 119
f 118 119 171
f 118 171 170
f 14 66 67
f 14 67 15
f 67 171 172
f 67 172 68
f 15 120 119
f 15 16 120
f 119 120 172
f 119 172 171
f 15 67 68
f 15 68 16
f 68 172 173
f 68 173 69
f 16 121 120
f 16 17 121
f 120 121 173
f 120 173 172
f 16 68 69
f 16 69 17
f 69 173 174
f 69 174 70
f 17 122 121
f 17 18 122
f 121 122 174
f 121 174 173
f 17 69 70
f 17 70 18
f 70 174 175
f 70 175 71
f 18 123 122
f 18 19 123
f 122 123 175
f 122 175 174
f 18 70 71
f 18 71 19
f 71 175 176
f 71 176 72
f 19 124 123
f 19 20 124
f 123 124 176
f 123 176 175
f 19 71 72
f 19 72 20
f 72 176 177
f 72 177 73
f 20 125 124
f 20 21 125
f 124 125 177
f 124 177 176
f 20 72 73
f 20 73 21
f 73 177 178
f 73 178 74
f 21 126 125
f 21 22 126
f 125 126 178
f 125 178 177
f 21 73 74
f 21 74 22
f 74 178 179
f 74 179 75
f 22 127 126
f 22 23 127
f 126 127 179
f 126 179 178
f 22 74 75
f 22 75 23
f 75 179 180
f 75 180 76
f 23 128 127
f 23 24 128
f 127 128 180
f 127 180 179
f 23 75 76
f 23 76 24
f 76 180 181
f 76 181 77
f 24 129 128
f 24 25 129
f 128 129 181
f 128 181 180
f 24 76 77
f 24 77 25
f 77 181 182
f 77 182 78
f 25 130 129
f 25 26 130
f 129 130 182
f 129 182 181
f 25 77 78
f 25 78 26
f 78 182 183
f 78 183 79
f 26 131 130
f 26 27 131
f 130 131 183
f 130 183 182
f 26 78 79
f 26 79 27
f 79 183 184
f 79 184 80
f 27 132 131
f 27 28 132
f 131 132 184
f 131 184 183
f 27 79 80
f 27 80 28
f 80 184 185
f 80 185 81
f 28 133 132
f 28 29 133
f 132 133 185
f 132 185 184
f 28 80 81
f 28 81 29
f 81 185 186
f 81 186 82
f 29 134 133
f 29 30 134
f 133 134 186
f 133 186 185
f 29 81 82
f 29 82 30
f 82 186 187
f 82 187 83
f 30 135 134
f 30 31 135
f 134 135 187
f 134 187 186
f 30 82 83
f 30 83 31
f 83 187 188
f 83 188 84
f 31 136 135
f 31 32 136
f 135 136 188
f 135 188 187
f 31 83 84
f 31 84 32
f 84 188 189
f 84 189 85
f 32 137 136
f 32 33 137
f 136 137 189
f 136 189 188
f 32 84 85
f 32 85 33
f 85 189 190
f 85 190 86
f 33 138 137
f 33 34 138
f 137 138 190
f 137 190 189
f 33 85 86
f 33 86 34
f 86 190 191
f 86 191 87
f 34 139 138
f 34 35 139
f 138 139 191
f 138 191 190
f 34 86 87
f 34 87 35
f 87 191 192
f 87 192 88
f 35 140 139
f 35 36 140
f 139 140 192
f 139 192 191
f 35 87 88
f 35 88 36
f 88 192 193
f 88 193 89
f 36 141 140
f 36 37 141
f 140 141 193
f 140 193 192
f 36 88 89
f 36 89 37
f 89 193 194
f 89 194 90
f 37 142 141
f 37 38 142
f 141 142 194
f 141 194 193
f 37 89 90
f 37 90 38
f 90 194 195
f 90 195 91
f 38 143 142
f 38 39 143
f 142 143 195
f 142 195 194
f 38 90 91
f 38 91 39
f 91 195 196
f 91 196 92
f 39 144 143
f 39 40 144
f 143 144 196
f 143 196 195
f 39 91 92
f 39 92 40
f 92 196 197
f 92 197 93
f 40 145 144
f 40 41 145
f 144 145 197
f 144 197 196
f 40 92 93
f 40 93 41
f 93 197 198
f 93 198 94
f 41 146 145
f 41 42 146
f 145 146 198
f 145 198 197
f 41 93 94
f 41 94 42
f 94 198 199
f 94 199 95
f 42 147 146
f 42 43 147
f 146 147 199
f 146 199 198
f 42 94 95
f 42 95 43
f 95 199 200
f 95 200 96
f 43 148 147
f 43 44 148
f 147 148 200
f 147 200 199
f 43 95 96
f 43 96 44
f 96 200 201
f 96 201 97
f 44 149 148
f 44 45 149
f 148 149 201
f 148 201 200
f 44 96 97
f 44 97 45
f 97 201 202
f 97 202 98
f 45 150 149
f 45 46 150
f 149 150 202
f 149 202 201
f 45 97 98
f 45 98 46
f 98 202 203
f 98 203 99
f 46 151 150
f 46 47 151
f 150 151 203
f 150 203 202
f 46 98 99
f 46 99 47
f 99 203 204
f 99 204 100
f 47 152 151
f 47 48 152
f 151 152 204
f 151 204 203
f 47 99 100
f 47 100 48
f 100 204 205
f 100 205 101
f 48 153 152
f 48 49 153
f 152 153 205
f 152 205 204
f 48 100 101
f 48 101 49
f 101 205 206
f 101 206 102
f 49 154 153
f 49 50 154
f 153 154 206
f 153 206 205
f 49 101 102
f 49 102 50
f 102 206 207
f 102 207 103
f 50 155 154
f 50 51 155
f 154 155 207
f 154 207 206
f 50 102 103
f 50 103 51
f 103 207 208
f 103 208 104
f 51 156 155
f 51 52 156
f 155 156 208
f 155 208 207
f 51 103 104
f 51 104 52
f 104 208 157
f 104 157 53
f 52 105 156
f 52 1 105
f 156 105 157
f 156 157 208
f 52 104 53
f 52 53 1
o Equerre
v 85 -5 10
v 118.884027 14.562952 18.316468
v 117.803686 13.939217 24.185353
v 89.002263 -2.689292 17.116356
v 84.6809 -5.184233 40.591898
v 79.598296 -8.118675 39.344428
v 70 20.980762 10
v 103.884027 40.543714 18.316468
v 102.803686 39.919979 24.185353
v 74.002263 23.29147 17.116356
v 69.6809 20.79653 40.591898
v 64.598296 17.862087 39.344428
f 209 210 211
f 215 217 216
f 209 211 212
f 215 218 217
f 209 212 213
f 215 219 218
f 209 213 214
f 215 220 219
f 209 215 216
f 209 216 210
f 210 216 217
f 210 217 211
f 211 217 218
f 211 218 212
f 212 218 219
f 212 219 213
f 213 219 220
f 213 220 214
f 214 220 215
f 214 215 209
